<svg id="Capa_1" data-name="Capa 1" xmlns="http://www.w3.org/2000/svg" xmlns:xlink="http://www.w3.org/1999/xlink" viewBox="0 0 970.58 258.52"><defs><style>.cls-1{fill:url(#Degradado_sin_nombre_9);}.cls-2{fill:url(#Degradado_sin_nombre_10);}.cls-3{fill:#fff;}</style><linearGradient id="Degradado_sin_nombre_9" x1="200.08" y1="47.25" x2="200.08" y2="175.77" gradientTransform="matrix(1, 0, 0, -1, 0, 274.14)" gradientUnits="userSpaceOnUse"><stop offset="0.41" stop-color="#fff"/><stop offset="1"/></linearGradient><linearGradient id="Degradado_sin_nombre_10" x1="208.81" y1="230.85" x2="140.93" y2="113.28" xlink:href="#Degradado_sin_nombre_9"/></defs><g id="Capa_3" data-name="Capa 3"><path class="cls-1" d="M215.73,136.07V222a4.9,4.9,0,0,1-7.1,4.4l-21.5-10.7a4.77,4.77,0,0,1-2.7-4.4v-59.6Z"/><path class="cls-2" d="M215.73,50.17v85.9l-31.3-15.6V97.07a4.9,4.9,0,0,0-7.1-4.4l-24.2,12.1-31.3-15.6,31.3-15.6L184.43,58l24.2-12.1A4.78,4.78,0,0,1,215.73,50.17Z"/><path class="cls-3" d="M214,138.87,35,226.47a4.9,4.9,0,0,1-7.1-4.4v-20.3a4.94,4.94,0,0,1,2.7-4.4l28.6-14.3,31.3-15.6,31.3-15.6,24.6-12.3a3.78,3.78,0,0,0,0-6.7l-24.6-12.4-31.3-15.6-24.2-12.1a4.9,4.9,0,0,0-7.1,4.4v35.9a4.94,4.94,0,0,1-2.7,4.4L35,148.17a4.9,4.9,0,0,1-7.1-4.4V50.17a4.9,4.9,0,0,1,7.1-4.4l179,87.6A3.05,3.05,0,0,1,214,138.87Z"/><path class="cls-3" d="M235.23,156.07c0-25.5,18-43.9,43.5-43.9,25.7,0,43.5,18.4,43.5,43.9,0,25.1-17.8,44.1-43.5,44.1C253.23,200.17,235.23,181.27,235.23,156.07Zm64.4,0c0-12.7-8.3-22-20.9-22s-20.9,9.4-20.9,22,8.4,22,20.9,22C291.43,178.17,299.63,168.77,299.63,156.07Z"/><path class="cls-3" d="M333.93,113.87h13.3a4.76,4.76,0,0,1,4.5,3.1l18.1,46.7a1.57,1.57,0,0,0,2.9,0l18.5-46.7a4.81,4.81,0,0,1,4.5-3H409a4.85,4.85,0,0,1,4.5,6.6l-29.8,74.8a4.81,4.81,0,0,1-4.5,3h-15.9a4.81,4.81,0,0,1-4.5-3l-29.4-74.8A4.86,4.86,0,0,1,333.93,113.87Z"/><path class="cls-3" d="M428.93,88.57c0-7.9,6.4-12.1,12.7-12.1,6.1,0,12.7,4.2,12.7,12.1a12.7,12.7,0,1,1-25.4,0Zm4.8,25.3h15.6a3.8,3.8,0,0,1,3.8,3.8l-.2,76.9a3.8,3.8,0,0,1-3.8,3.8h-15.4a3.8,3.8,0,0,1-3.8-3.8v-76.9A3.93,3.93,0,0,1,433.73,113.87Z"/><path class="cls-3" d="M614.33,88.57c0-7.9,6.4-12.1,12.7-12.1,6.1,0,12.7,4.2,12.7,12.1a12.7,12.7,0,1,1-25.4,0Zm4.8,25.3h15.6a3.8,3.8,0,0,1,3.8,3.8l-.2,76.9a3.8,3.8,0,0,1-3.8,3.8h-15.4a3.8,3.8,0,0,1-3.8-3.8v-76.9A3.93,3.93,0,0,1,619.13,113.87Z"/><path class="cls-3" d="M471.33,156.07c0-25.3,16.7-44.1,42.5-43.9,22.3.2,40.1,19,40.1,41.4v5a3.69,3.69,0,0,1-3.7,3.7h-56.8c2.2,11.4,10.5,18.2,20.9,18.2,9.2,0,14.8-3.5,18.2-6.9a3.23,3.23,0,0,1,4.3-.3l10.4,7.6a3.37,3.37,0,0,1,.6,4.8c-7.6,9-19.5,14.5-33.5,14.5C488.33,200.17,471.33,181.27,471.33,156.07Zm58-8.2a2.41,2.41,0,0,0,2.3-3.1c-2.6-8.3-8.6-14.3-18.3-14.3-9.4,0-16,5.5-18.8,14.3a2.41,2.41,0,0,0,2.3,3.1Z"/><path class="cls-3" d="M799.83,156.07c0-25.3,16.7-44.1,42.5-43.9,22.3.2,40.1,19,40.1,41.4v5a3.69,3.69,0,0,1-3.7,3.7h-56.9c2.2,11.4,10.5,18.2,20.9,18.2,9.2,0,14.8-3.5,18.2-6.9a3.23,3.23,0,0,1,4.3-.3l10.4,7.6a3.37,3.37,0,0,1,.6,4.8c-7.6,9-19.5,14.5-33.5,14.5C816.83,200.17,799.83,181.27,799.83,156.07Zm58-8.2a2.41,2.41,0,0,0,2.3-3.1c-2.6-8.3-8.6-14.3-18.3-14.3-9.4,0-16,5.5-18.8,14.3a2.41,2.41,0,0,0,2.3,3.1Z"/><path class="cls-3" d="M575.53,79h14a4.59,4.59,0,0,1,4.6,4.6l-.2,110.2a4.59,4.59,0,0,1-4.6,4.6h-13.8a4.59,4.59,0,0,1-4.6-4.6V83.57A4.65,4.65,0,0,1,575.53,79Z"/><path class="cls-3" d="M658,178.37l8.9-6a4.28,4.28,0,0,1,5.6.7c3.9,4.4,12,9.4,20.5,9.4,7.9,0,12.1-2.4,12.1-7.9,0-6.8-10.8-8.6-17.4-10.8s-29.2-7.5-29.2-26.1c0-18,15.8-25.7,34-25.7,15.8,0,27.1,6.4,32.6,14a4.25,4.25,0,0,1-1.2,6l-8.3,5.3a4.36,4.36,0,0,1-5.2-.4c-3.9-3.6-11.3-7.5-18.6-7.5-7.5,0-10.8,2.9-10.8,7.2,0,6.8,10.5,8.6,17.1,10.8s29.6,8.1,29.6,26.3c0,17.8-13.2,27.2-34.9,27.2-18.2,0-30.4-7.8-35.9-16.7A4.09,4.09,0,0,1,658,178.37Z"/><path class="cls-3" d="M748.13,173.87v-40.7a1.9,1.9,0,0,0-1.9-1.9h-5.5a3.59,3.59,0,0,1-3.6-3.6v-10.2a3.59,3.59,0,0,1,3.6-3.6h5.5a1.9,1.9,0,0,0,1.9-1.9V91.57a3.59,3.59,0,0,1,3.6-3.6h15.7a3.59,3.59,0,0,1,3.6,3.6v20.5a1.9,1.9,0,0,0,1.9,1.9h12.5a3.59,3.59,0,0,1,3.6,3.6v10.2a3.59,3.59,0,0,1-3.6,3.6h-12.5a1.9,1.9,0,0,0-1.9,1.9v37.1c0,9.9,6.1,10.3,11.4,10.3h2.1a3.59,3.59,0,0,1,3.6,3.6v10.6a3.59,3.59,0,0,1-3.6,3.6h-11.6C756,198.37,748.13,189.47,748.13,173.87Z"/><path class="cls-3" d="M902.23,113.87h16.4a3.33,3.33,0,0,1,3.3,3.3v8.2a1.15,1.15,0,0,0,2.1.7,34.46,34.46,0,0,1,24-13.2,3.28,3.28,0,0,1,3.6,3.3v14.9a3.18,3.18,0,0,1-3,3.2c-9.5.6-26.7,3.9-26.7,25.4v35.4a3.33,3.33,0,0,1-3.3,3.3h-16.4a3.33,3.33,0,0,1-3.3-3.3v-77.9A3.4,3.4,0,0,1,902.23,113.87Z"/></g></svg>